<?xml version="1.0" encoding="UTF-8"?>
<svg width="15px" height="15px" viewBox="0 0 15 15" version="1.1" xmlns="http://www.w3.org/2000/svg" xmlns:xlink="http://www.w3.org/1999/xlink">
    <!-- Generator: Sketch 64 (93537) - https://sketch.com -->
    <title>Disable@1x</title>
    <desc>Created with Sketch.</desc>
    <g id="Design_v1" stroke="none" stroke-width="1" fill="none" fill-rule="evenodd" opacity="0.550000012">
        <g id="Text-Box-Icon-(Mouseover)" transform="translate(-1185.000000, -957.000000)" fill="#000000" fill-rule="nonzero">
            <g id="Mouseover" transform="translate(1137.000000, 949.000000)">
                <path d="M55.5029938,8 C55.0446605,8 54.6696605,8.375 54.6696605,8.83333333 L54.6696605,15.5 C54.6696605,15.9583333 55.0446605,16.3333333 55.5029938,16.3333333 C55.9613272,16.3333333 56.3363272,15.9583333 56.3363272,15.5 L56.3363272,8.83333333 C56.3363272,8.375 55.9613272,8 55.5029938,8 Z M59.7863272,10.3833333 C59.4613272,10.7083333 59.4696605,11.2166667 59.7779938,11.5416667 C60.7196605,12.5416667 61.3029938,13.875 61.3363272,15.35 C61.4113272,18.5416667 58.7696605,21.2916667 55.5779938,21.325 C52.3196605,21.375 49.6696605,18.75 49.6696605,15.5 C49.6696605,13.9666667 50.2613272,12.575 51.2279938,11.5333333 C51.5363272,11.2083333 51.5363272,10.7 51.2196605,10.3833333 C50.8863272,10.05 50.3446605,10.0583333 50.0279938,10.4 C48.8196605,11.6833333 48.0613272,13.3916667 48.0029938,15.2833333 C47.8863272,19.35 51.1946605,22.8666667 55.2613272,22.9916667 C59.5113272,23.125 63.0029938,19.7166667 63.0029938,15.4916667 C63.0029938,13.5166667 62.2363272,11.7333333 60.9863272,10.4 C60.6696605,10.0583333 60.1196605,10.05 59.7863272,10.3833333 L59.7863272,10.3833333 Z" id="Disable"></path>
            </g>
        </g>
    </g>
</svg>