<?xml version="1.0" encoding="UTF-8" standalone="no"?>
<!-- Created with Inkscape (http://www.inkscape.org/) -->

<svg
   xmlns:dc="http://purl.org/dc/elements/1.1/"
   xmlns:cc="http://creativecommons.org/ns#"
   xmlns:rdf="http://www.w3.org/1999/02/22-rdf-syntax-ns#"
   xmlns:svg="http://www.w3.org/2000/svg"
   xmlns="http://www.w3.org/2000/svg"
   xmlns:sodipodi="http://sodipodi.sourceforge.net/DTD/sodipodi-0.dtd"
   xmlns:inkscape="http://www.inkscape.org/namespaces/inkscape"
   width="20.153"
   height="17.941"
   viewBox="0 0 20.153 17.941"
   version="1.1"
   id="SVGRoot"
   inkscape:version="0.92.5 (2060ec1f9f, 2020-04-08)"
   sodipodi:docname="quran_3.svg">
  <defs
     id="defs1533" />
  <sodipodi:namedview
     id="base"
     pagecolor="#ffffff"
     bordercolor="#666666"
     borderopacity="1.0"
     inkscape:pageopacity="0.0"
     inkscape:pageshadow="2"
     inkscape:zoom="36.203867"
     inkscape:cx="9.6725353"
     inkscape:cy="9.1517393"
     inkscape:document-units="px"
     inkscape:current-layer="layer1"
     showgrid="false"
     inkscape:window-width="1920"
     inkscape:window-height="1015"
     inkscape:window-x="0"
     inkscape:window-y="0"
     inkscape:window-maximized="1"
     inkscape:grid-bbox="true" />
  <metadata
     id="metadata1536">
    <rdf:RDF>
      <cc:Work
         rdf:about="">
        <dc:format>image/svg+xml</dc:format>
        <dc:type
           rdf:resource="http://purl.org/dc/dcmitype/StillImage" />
        <dc:title></dc:title>
      </cc:Work>
    </rdf:RDF>
  </metadata>
  <g
     inkscape:label="Layer 1"
     inkscape:groupmode="layer"
     id="layer1"
     transform="translate(0,-2.059)">
    <path
       sodipodi:type="inkscape:offset"
       inkscape:radius="0.075716086"
       inkscape:original="M 15.300781 1.1210938 C 14.732369 1.1653737 13.837548 1.34626 13.271484 1.53125 C 11.970676 1.95633 10.984142 2.6045231 10.363281 3.4394531 C 10.210266 3.6452331 10.05141 3.8046875 10 3.8046875 C 9.948541 3.8046875 9.7887666 3.6446 9.6347656 3.4375 C 8.8011626 2.31648 7.318857 1.5412375 5.375 1.2109375 C 4.532474 1.0677575 4.3041612 1.0694063 4.2070312 1.2226562 C 4.1655023 1.2881862 3.18667 3.6277619 2.03125 6.4199219 C 0.14311797 10.982732 -0.06129125 11.505125 0.01171875 11.578125 C 0.08402375 11.650325 0.15340087 11.650784 0.63867188 11.583984 C 1.4333699 11.474524 3.4651289 11.488132 4.1230469 11.607422 C 6.1907689 11.982312 7.9238499 12.801663 9.3886719 14.095703 C 9.5846259 14.268813 9.734375 14.4434 9.734375 14.5 C 9.734375 14.59823 8.7187651 15.290748 4.9707031 17.742188 C 4.2700981 18.200429 3.6811225 18.61175 3.6640625 18.65625 C 3.6470025 18.700709 3.6632787 18.771153 3.6992188 18.814453 L 3.6992188 18.816406 C 3.7351638 18.859706 3.7989637 18.894531 3.8398438 18.894531 C 3.8807198 18.894531 5.253372 18.010717 6.890625 16.929688 C 8.527878 15.848657 9.9144163 14.962921 9.9726562 14.962891 C 10.030898 14.962871 11.419649 15.848631 13.058594 16.931641 C 14.69754 18.014661 16.076137 18.893766 16.123047 18.884766 C 16.257216 18.858366 16.332239 18.705281 16.255859 18.613281 C 16.220429 18.570591 14.857891 17.657584 13.228516 16.583984 C 10.843418 15.012434 10.266604 14.609578 10.265625 14.517578 C 10.264228 14.380818 10.608617 14.059095 11.335938 13.515625 C 12.57895 12.586815 14.05483 11.953486 15.726562 11.634766 C 16.555875 11.476666 18.229162 11.440877 19.177734 11.560547 C 19.827773 11.642647 19.920154 11.644319 19.990234 11.574219 C 20.06032 11.504129 19.830012 10.921252 17.966797 6.4199219 C 16.811145 3.6279919 15.829336 1.2863969 15.785156 1.2167969 C 15.708674 1.0962969 15.685718 1.0910937 15.300781 1.1210938 z M 4.4746094 1.5546875 L 4.8945312 1.5625 C 5.7440673 1.57899 7.1926217 2.0237006 8.0273438 2.5253906 C 8.7959327 2.9873206 9.2808007 3.4850562 9.6210938 4.1601562 L 9.7871094 4.4902344 L 9.7753906 9.1113281 C 9.7635106 13.16918 9.7514006 13.731841 9.6816406 13.744141 C 9.6379606 13.751822 9.3930067 13.591663 9.1367188 13.388672 C 7.0447087 11.731712 4.2403814 10.895245 1.4746094 11.103516 C 1.0333634 11.136716 0.6467475 11.149159 0.6171875 11.130859 C 0.5876175 11.112589 0.57888312 11.035484 0.59570312 10.958984 C 0.61251912 10.882434 1.4903661 8.73552 2.5488281 6.1875 L 4.4746094 1.5546875 z M 15.525391 1.5546875 L 17.472656 6.2402344 C 18.543836 8.8173834 19.414503 10.97305 19.408203 11.03125 C 19.398387 11.12195 19.361276 11.135953 19.158203 11.126953 C 18.166442 11.084353 16.726854 11.097997 16.298828 11.154297 C 14.244327 11.424727 12.372289 12.194492 10.861328 13.388672 C 10.407189 13.747562 10.318834 13.795356 10.246094 13.722656 C 10.226674 13.703246 10.210938 11.617331 10.210938 9.0878906 L 10.210938 4.4902344 L 10.376953 4.1601562 C 10.716945 3.4856563 11.202335 2.9871906 11.970703 2.5253906 C 12.805642 2.0235706 14.253583 1.579 15.103516 1.5625 L 15.525391 1.5546875 z M 5.0703125 2.78125 C 4.9908685 2.8607 2.3214994 9.3028159 2.2871094 9.4980469 C 2.2454604 9.7344859 2.3410696 9.7922562 2.6660156 9.7226562 C 3.1040976 9.6288963 4.6076751 9.6462421 5.1425781 9.7519531 C 6.4212261 10.004634 7.5336935 10.552756 8.4453125 11.378906 C 8.6359695 11.551686 8.8118375 11.693359 8.8359375 11.693359 C 8.8600415 11.693359 8.9171306 11.655175 8.9628906 11.609375 C 9.0366906 11.535535 9.046875 11.159291 9.046875 8.2558594 L 9.046875 4.984375 L 8.875 4.6503906 C 8.525669 3.9710706 7.7588951 3.3896831 6.7832031 3.0644531 C 6.1990641 2.8697231 5.1547225 2.69685 5.0703125 2.78125 z M 14.292969 2.8125 C 12.775509 3.04047 11.602346 3.7211669 11.121094 4.6542969 L 10.953125 4.984375 L 10.953125 8.2558594 C 10.953125 11.1593 10.961316 11.535575 11.035156 11.609375 C 11.080913 11.655175 11.138009 11.693359 11.162109 11.693359 C 11.186214 11.693359 11.362077 11.551686 11.552734 11.378906 C 12.458272 10.558275 13.58429 10.004237 14.851562 9.7539062 C 15.390114 9.6475063 16.892271 9.6285563 17.332031 9.7226562 C 17.622718 9.7848762 17.728516 9.7425863 17.728516 9.5664062 C 17.728516 9.4548463 15.052539 2.95646 14.947266 2.8125 C 14.88694 2.72995 14.842469 2.7299 14.292969 2.8125 z M 5.8027344 3.2167969 C 6.7718084 3.3761669 7.6395521 3.7776087 8.1269531 4.2929688 C 8.6579141 4.8543788 8.625025 4.6047819 8.609375 7.9199219 C 8.597435 10.447782 8.5868281 10.820784 8.5175781 10.833984 C 8.4738981 10.842284 8.2776843 10.732644 8.0820312 10.589844 C 7.3734372 10.072644 6.4500979 9.6593437 5.4980469 9.4335938 C 5.0439509 9.3258838 4.7559669 9.2969375 3.9199219 9.2734375 C 3.1287679 9.2511975 2.8903906 9.227275 2.8691406 9.171875 C 2.8375666 9.089595 5.2031532 3.3407694 5.3164062 3.2246094 C 5.3803563 3.1590094 5.4508894 3.1588969 5.8027344 3.2167969 z M 14.685547 3.2285156 C 14.773821 3.3190856 17.146484 9.0361831 17.146484 9.1582031 C 17.146484 9.2351231 17.025115 9.2483375 16.101562 9.2734375 C 15.239544 9.2968875 14.958287 9.3247928 14.5 9.4335938 C 13.548516 9.6594828 12.626244 10.071531 11.917969 10.587891 C 11.569026 10.842311 11.480086 10.880447 11.410156 10.810547 C 11.390736 10.791138 11.375 9.4798544 11.375 7.8964844 C 11.375 5.0719244 11.378648 5.0137281 11.488281 4.7988281 C 11.653456 4.4750581 12.094645 4.0344344 12.486328 3.8027344 C 13.131335 3.4211744 14.520193 3.0588556 14.685547 3.2285156 z "
       style="fill:#80CBC4;fill-opacity:1;stroke-width:0.05294595"
       id="path1443"
       d="m 4.5117188,1.0292969 c -0.092754,8.88e-4 -0.167164,0.012343 -0.2285157,0.037109 -0.061352,0.024766 -0.1091952,0.065645 -0.140625,0.1152344 -0.011859,0.018714 -0.013415,0.026773 -0.023437,0.048828 -0.010023,0.022055 -0.022477,0.051795 -0.039063,0.089844 C 4.0469079,1.3964097 3.9992851,1.5044199 3.9414062,1.640625 3.8256486,1.9130351 3.6639903,2.2984067 3.4667969,2.7695312 3.07241,3.7117803 2.5386791,4.9944687 1.9609375,6.390625 1.0168502,8.6720814 0.49340761,9.9427631 0.21484375,10.654297 c -0.13928193,0.355767 -0.21600015,0.571531 -0.25585937,0.707031 -0.01992962,0.06775 -0.03210964,0.116092 -0.03515625,0.15625 -0.0030466,0.04016 0.003819,0.08195 0.03515625,0.113281 0.04466383,0.0446 0.11354968,0.07724 0.2109375,0.07813 0.0973878,8.84e-4 0.235374,-0.01731 0.47851562,-0.05078 0.7765764,-0.106964 2.82895,-0.09115 3.4609375,0.02344 2.0559746,0.37276 3.7740167,1.185782 5.2285156,2.470703 0.095684,0.08453 0.1814523,0.1696 0.2402344,0.238281 0.029391,0.03434 0.052341,0.06566 0.066406,0.08789 0.00778,0.01229 0.00608,0.0073 0.00781,0.01172 -0.00545,0.0062 -0.010674,0.01128 -0.021484,0.02149 -0.031449,0.02969 -0.084375,0.07318 -0.1601563,0.130859 -0.1515625,0.115356 -0.395144,0.287618 -0.7558593,0.533203 -0.7214307,0.491172 -1.9112368,1.278259 -3.7851563,2.503907 -0.3508535,0.22948 -0.6742166,0.44695 -0.9121094,0.613281 -0.1189464,0.08317 -0.2171614,0.152048 -0.2871093,0.205078 -0.034974,0.02651 -0.06281,0.05018 -0.083984,0.06836 -0.010587,0.0091 -0.019316,0.01715 -0.027344,0.02539 -0.00401,0.0041 -0.00757,0.0064 -0.011719,0.01172 -0.00207,0.0027 -0.00349,0.006 -0.00586,0.0098 -0.00237,0.0038 -0.00755,0.01493 -0.00781,0.01563 -0.027818,0.07249 -0.00798,0.142693 0.03125,0.203125 8.104e-4,0.0012 0.00112,0.0027 0.00195,0.0039 a 0.07572366,0.07572366 0 0 0 0,0.002 0.07572366,0.07572366 0 0 0 0.013672,0.02539 0.07572366,0.07572366 0 0 0 0,0.002 c 0.025663,0.03091 0.05667,0.05394 0.089844,0.07227 0.033174,0.01833 0.067435,0.0332 0.109375,0.0332 3.193e-4,0 0.01363,-0.0011 0.017578,-0.002 0.00395,-8.82e-4 0.00735,-0.0031 0.00977,-0.0039 0.00484,-0.0016 0.00839,-0.0024 0.011719,-0.0039 0.00665,-0.0029 0.012274,-0.0059 0.019531,-0.0098 0.014515,-0.0077 0.031842,-0.0178 0.054687,-0.03125 0.04569,-0.02689 0.1111071,-0.06518 0.1914062,-0.115234 0.1605983,-0.100112 0.3854652,-0.245672 0.6621094,-0.423829 0.5532884,-0.356313 1.3061719,-0.848024 2.125,-1.388671 0.81836,-0.54034 1.5747354,-1.030468 2.1328125,-1.386719 0.2790386,-0.178126 0.5089168,-0.322431 0.671875,-0.421875 0.081479,-0.04972 0.1461296,-0.08969 0.1914063,-0.115235 0.01931,-0.01089 0.033583,-0.01767 0.044922,-0.02344 0.011354,0.0058 0.025585,0.01255 0.044922,0.02344 0.04534,0.02554 0.109812,0.0655 0.191406,0.115235 0.163189,0.09947 0.394413,0.243629 0.673828,0.421875 0.558832,0.356492 1.315579,0.847355 2.134766,1.388672 0.819758,0.541698 1.572999,1.032355 2.128906,1.386718 0.277954,0.177182 0.50761,0.321325 0.669922,0.419922 0.08116,0.0493 0.144455,0.08712 0.191406,0.113281 0.02348,0.01308 0.0428,0.02375 0.05859,0.03125 0.0079,0.0038 0.01525,0.0069 0.02344,0.0098 0.0041,0.0015 0.0073,0.0026 0.01367,0.0039 0.0032,6.75e-4 0.01314,0.0019 0.01367,0.002 5.28e-4,3.7e-5 0.01916,-0.0019 0.01953,-0.002 0.09166,-0.01804 0.163007,-0.07837 0.199219,-0.152343 0.03621,-0.07398 0.03767,-0.170934 -0.02148,-0.242188 -5.53e-4,-6.67e-4 -0.0072,-0.0074 -0.0098,-0.0098 -0.0026,-0.0024 -0.0053,-0.0038 -0.0078,-0.0059 -0.005,-0.0041 -0.01091,-0.0086 -0.01758,-0.01367 -0.01334,-0.01006 -0.03049,-0.02325 -0.05273,-0.03906 -0.04449,-0.03161 -0.108215,-0.07459 -0.1875,-0.128906 -0.158568,-0.10864 -0.381759,-0.261336 -0.65625,-0.445313 -0.548981,-0.367953 -1.298456,-0.8635 -2.113281,-1.400391 -1.192408,-0.785682 -1.932028,-1.28024 -2.373047,-1.58789 -0.220509,-0.153825 -0.366803,-0.261362 -0.455078,-0.333985 -0.04414,-0.03631 -0.07385,-0.06419 -0.08984,-0.08203 -0.0037,-0.0041 -0.0041,-0.0048 -0.0059,-0.0078 0.0017,-0.0072 0.0091,-0.03631 0.04492,-0.08399 0.03907,-0.05205 0.102945,-0.12023 0.189453,-0.201172 0.173016,-0.161883 0.438269,-0.37756 0.800781,-0.648437 1.233212,-0.921487 2.697716,-1.550388 4.359375,-1.867188 0.812974,-0.154985 2.491993,-0.19227 3.427735,-0.07422 0.325398,0.0411 0.511764,0.0624 0.632812,0.06445 0.06052,0.001 0.10617,-0.0018 0.146485,-0.01367 0.04031,-0.01184 0.0722,-0.03508 0.0957,-0.05859 0.03464,-0.03464 0.03542,-0.0766 0.03125,-0.117187 -0.0042,-0.04059 -0.01405,-0.09048 -0.03516,-0.160157 -0.04222,-0.139351 -0.124497,-0.359493 -0.265624,-0.71875 C 19.491183,9.9123465 18.968737,8.6413385 18.037109,6.390625 17.459246,4.9945704 16.924794,3.7108255 16.529297,2.7675781 16.331548,2.2959545 16.169154,1.9099019 16.052734,1.6367188 15.994524,1.5001272 15.947578,1.3929682 15.914062,1.3164062 c -0.01676,-0.038281 -0.03081,-0.069479 -0.04101,-0.091797 -0.0102,-0.022318 -0.01194,-0.030715 -0.02344,-0.048828 -0.01991,-0.031364 -0.03977,-0.060309 -0.06836,-0.085937 -0.02859,-0.025628 -0.06577,-0.042497 -0.107422,-0.050781 -0.0833,-0.016569 -0.185983,-0.00918 -0.378906,0.00586 -0.578196,0.045042 -1.472269,0.2262809 -2.046875,0.4140625 -1.311666,0.4286282 -2.312731,1.0848553 -2.945313,1.9355468 -0.07461,0.1003367 -0.151141,0.1899021 -0.21289,0.2519532 -0.03087,0.031026 -0.05845,0.053783 -0.07813,0.068359 -0.019671,0.014576 -0.038007,0.013672 -0.01172,0.013672 0.02639,0 0.0081,9.924e-4 -0.011719,-0.013672 -0.01979,-0.014664 -0.04707,-0.039124 -0.078125,-0.070313 C 9.8480465,3.5821534 9.7704056,3.4935631 9.6953125,3.3925781 8.8460371,2.2504821 7.3435984,1.4692316 5.3867188,1.1367188 4.9642947,1.0649314 4.6972267,1.0275209 4.5117188,1.0292969 Z m 0.013672,0.6015625 0.3671875,0.00781 c 0.8247971,0.01601 2.2771981,0.4592288 3.0957031,0.9511719 0.7600567,0.456802 1.2304392,0.9408726 1.5644532,1.6035156 l 0.1582031,0.3144531 -0.011719,4.6035156 c -0.00594,2.0288609 -0.012186,3.1839589 -0.025391,3.8320309 -0.0066,0.324036 -0.01467,0.521234 -0.025391,0.634766 -0.00335,0.03548 -0.00633,0.04897 -0.00977,0.06836 C 9.610025,13.631178 9.5752671,13.610765 9.53125,13.582031 9.4352128,13.519338 9.3101317,13.430302 9.1835938,13.330078 7.0754895,11.660371 4.2534807,10.817645 1.46875,11.027344 c -0.2196789,0.01653 -0.4261264,0.02828 -0.58007812,0.0332 -0.0769759,0.0025 -0.14048579,0.0028 -0.18554688,0.002 -0.0173389,-3.26e-4 -0.0282312,-0.0012 -0.0390625,-0.002 -1.9296e-4,-0.001 1.3647e-4,-8.29e-4 0,-0.002 -0.00249,-0.02052 -8.1468e-4,-0.05363 0.005859,-0.08399 -0.002376,0.01082 0.002419,-0.0075 0.009766,-0.02734 0.007347,-0.01984 0.0174978,-0.04871 0.03125,-0.08399 0.0275043,-0.07056 0.0685936,-0.16913 0.11914062,-0.294922 C 0.93117221,10.316776 1.0750533,9.961609 1.2519531,9.5292969 1.6057528,8.6646726 2.089955,7.4906977 2.6191406,6.2167969 Z m 10.9492184,0 1.927735,4.6386718 c 0.535509,1.2883793 1.020457,2.4718556 1.371094,3.3398438 0.175318,0.433994 0.318756,0.789075 0.416015,1.039063 0.04863,0.124993 0.08444,0.222463 0.109375,0.291015 0.01247,0.03428 0.02355,0.06216 0.0293,0.08008 0.002,0.0062 9e-4,0.01 0.002,0.01367 -0.001,0.0047 -0.0016,0.01083 -0.002,0.01172 -0.01102,0.0042 -0.06642,0.01027 -0.166016,0.0059 -0.995592,-0.04276 -2.424825,-0.02966 -2.873047,0.0293 -2.067032,0.27208 -3.952197,1.04677 -5.474609,2.25 -0.226478,0.178978 -0.362447,0.278528 -0.439453,0.320313 -0.03281,0.0178 -0.04825,0.02024 -0.05664,0.02148 -8.3e-4,-0.01474 -0.0031,-0.0291 -0.0039,-0.05273 -0.0023,-0.06295 -0.0038,-0.156727 -0.0059,-0.275391 -0.0042,-0.237328 -0.0085,-0.578149 -0.01172,-0.998047 -0.0064,-0.839796 -0.0098,-1.993249 -0.0098,-3.2578124 V 4.5078125 L 10.445312,4.1933594 C 10.779016,3.5313357 11.249949,3.046504 12.009766,2.5898438 12.8285,2.0977629 14.280255,1.654692 15.105469,1.6386719 Z m -0.671875,1.0449218 c -0.09928,-7.1e-6 -0.246435,0.021155 -0.521484,0.0625 -1.533688,0.230408 -2.729209,0.9165092 -3.226562,1.8808594 a 0.07572366,0.07572366 0 0 0 -0.002,0 l -0.167968,0.3300782 a 0.07572366,0.07572366 0 0 0 -0.0078,0.035156 v 3.2714844 c 0,1.4517915 0.0023,2.2720866 0.01367,2.7402346 0.0057,0.234074 0.01359,0.380238 0.02539,0.476562 0.0118,0.09632 0.02569,0.148756 0.06641,0.189453 0.02657,0.0266 0.05404,0.05173 0.08203,0.07031 0.02799,0.01858 0.04562,0.03711 0.09766,0.03711 7.54e-4,0 0.01618,-0.0025 0.02149,-0.0039 0.0053,-0.0014 0.01008,-0.0024 0.01367,-0.0039 0.0072,-0.0029 0.01202,-0.0066 0.01758,-0.0098 0.01112,-0.0063 0.02252,-0.01265 0.03516,-0.02148 0.02528,-0.01767 0.05558,-0.04115 0.0918,-0.07031 0.07244,-0.05833 0.165437,-0.137355 0.261719,-0.224609 0.89496,-0.811045 2.008871,-1.359555 3.263672,-1.607422 0.256982,-0.050771 0.766415,-0.083601 1.261718,-0.089844 0.495304,-0.00624 0.985887,0.015453 1.1875,0.058594 0.150615,0.032238 0.26022,0.043918 0.351563,0.00781 0.04567,-0.018053 0.08506,-0.052757 0.107422,-0.095703 0.02236,-0.042946 0.0293,-0.090955 0.0293,-0.1425782 0,-8.715e-4 -0.0011,-0.013464 -0.002,-0.017578 -8.1e-4,-0.00411 -0.003,-0.00823 -0.0039,-0.011719 -0.0019,-0.00698 -0.0031,-0.014885 -0.0059,-0.023437 -0.0056,-0.017106 -0.01346,-0.03906 -0.02344,-0.066406 -0.01997,-0.054693 -0.04915,-0.1300224 -0.08594,-0.2246094 C 17.610012,9.0334823 17.505226,8.7688098 17.378906,8.4550781 17.126267,7.8276147 16.788399,7.0002817 16.447266,6.171875 16.106132,5.3434683 15.761894,4.5143166 15.496094,3.8828125 15.363194,3.5670604 15.249473,3.3015467 15.166016,3.109375 c -0.04173,-0.096086 -0.07582,-0.1741426 -0.101563,-0.2304688 -0.01287,-0.028163 -0.02253,-0.050694 -0.03125,-0.068359 -0.0087,-0.017665 -0.01335,-0.026506 -0.02539,-0.042969 -0.01769,-0.024212 -0.04196,-0.052735 -0.07812,-0.070312 -0.03617,-0.017578 -0.07731,-0.021481 -0.126954,-0.021484 z m -9.6640621,0.00977 c -0.043761,0.00344 -0.078371,2.513e-4 -0.1210938,0.042969 -6.206e-4,6.207e-4 -0.00937,0.010181 -0.011719,0.013672 -0.00234,0.00349 -0.00405,0.00663 -0.00586,0.00977 -0.00362,0.00626 -0.00766,0.013493 -0.011719,0.021484 -0.00812,0.015984 -0.019076,0.036244 -0.03125,0.0625 -0.024349,0.052513 -0.057211,0.1264186 -0.097656,0.21875 C 4.7784837,3.2393504 4.6681554,3.4974021 4.5371094,3.8066406 4.2750174,4.4251178 3.9326409,5.2438335 3.5917969,6.0664062 3.2509528,6.888979 2.9107482,7.7166677 2.6542969,8.3496094 2.5260712,8.6660802 2.4203801,8.9334225 2.34375,9.1289062 c -0.038315,0.097742 -0.07004,0.1775977 -0.091797,0.2363282 -0.010879,0.029365 -0.01894,0.053199 -0.025391,0.072266 -0.00645,0.019067 -0.010511,0.02893 -0.013672,0.046875 -0.011362,0.064503 -0.01544,0.1208692 -0.00391,0.1738281 0.011534,0.052959 0.044446,0.1046344 0.091797,0.1328125 0.094702,0.056356 0.2127043,0.041877 0.3808594,0.00586 0.2007717,-0.04297 0.6905442,-0.064395 1.1855469,-0.058594 0.4950027,0.0058 1.0047788,0.037498 1.2597656,0.087891 1.2664121,0.2502631 2.366323,0.7926171 3.2675781,1.6093751 0.096282,0.08725 0.1892788,0.166282 0.2617188,0.224609 0.03622,0.02916 0.066521,0.05264 0.091797,0.07031 0.012638,0.0088 0.024033,0.01523 0.035156,0.02148 0.00556,0.0031 0.010402,0.0069 0.017578,0.0098 0.00359,0.0015 0.00837,0.0025 0.013672,0.0039 0.0053,0.0014 0.020731,0.0039 0.021484,0.0039 0.052034,0 0.069667,-0.01853 0.097656,-0.03711 0.02799,-0.01858 0.05546,-0.04372 0.082031,-0.07031 0.040562,-0.04058 0.054411,-0.09311 0.066406,-0.189453 0.011996,-0.09635 0.01948,-0.24247 0.025391,-0.476562 0.011821,-0.468184 0.015625,-1.2884303 0.015625,-2.7402346 V 4.984375 a 0.07572366,0.07572366 0 0 0 -0.00977,-0.035156 L 8.9414062,4.6152344 C 8.5795033,3.9114666 7.7967238,3.3222145 6.8066406,2.9921875 6.5081055,2.8926671 6.1000612,2.8017215 5.7519531,2.7441406 5.5778991,2.7153502 5.4200231,2.6951442 5.296875,2.6875 5.2353009,2.6836779 5.1824333,2.6821062 5.1386719,2.6855469 Z M 5.453125,3.25 c 0.058045,-8.261e-4 0.1627758,0.012198 0.3378906,0.041016 0.9561257,0.1572406 1.8111883,0.5576614 2.28125,1.0546875 0.1343967,0.1421039 0.2284747,0.2291235 0.2929688,0.3261719 0.064494,0.097048 0.1056013,0.207671 0.1328125,0.4121094 0.054422,0.4088767 0.042982,1.1781081 0.035156,2.8359375 -0.00597,1.2638417 -0.010702,1.9896345 -0.023437,2.3984371 -0.00637,0.204402 -0.015385,0.330457 -0.025391,0.400391 -0.0021,0.01468 -0.00374,0.01574 -0.00586,0.02539 -0.022412,-0.0098 -0.050338,-0.02218 -0.083984,-0.04102 C 8.3190636,10.660864 8.2224976,10.599031 8.1269531,10.529297 7.4085747,10.004955 6.477169,9.5873759 5.515625,9.359375 5.0574984,9.2507089 4.7591774,9.220801 3.921875,9.1972656 3.5268467,9.1861611 3.2702528,9.1754357 3.1132812,9.1601562 3.0375644,9.1527861 2.987309,9.142699 2.9570312,9.1347656 c 0.00208,-0.0065 0.00326,-0.00981 0.00586,-0.017578 C 2.977972,9.0721406 3.0004721,9.0060384 3.03125,8.9238281 3.0928058,8.7594075 3.183515,8.5278755 3.2929688,8.2519531 3.5118763,7.7001083 3.8086637,6.9710167 4.109375,6.2402344 4.4100863,5.509452 4.714166,4.7768052 4.9511719,4.2207031 5.0696748,3.9426521 5.1709821,3.7087077 5.2460938,3.5410156 c 0.037556,-0.083846 0.068874,-0.151982 0.091797,-0.1992187 0.011462,-0.023618 0.020533,-0.042208 0.027344,-0.054687 0.00681,-0.01248 0.018064,-0.022283 0.00586,-0.00977 C 5.3933714,3.2544913 5.39508,3.2508261 5.453125,3.25 Z m 9.109375,0.013672 c 0.04706,0.00477 0.07088,0.020164 0.06836,0.017578 -0.01719,-0.017635 -0.0043,-0.00406 0.002,0.00781 0.0062,0.011873 0.01648,0.029826 0.02734,0.052734 0.02172,0.045817 0.05137,0.1110566 0.08789,0.1933593 0.07305,0.1646056 0.171716,0.3947969 0.289062,0.6699219 0.234693,0.5502502 0.539769,1.2781083 0.841797,2.0058594 0.302028,0.7277511 0.602507,1.4555877 0.826172,2.0097656 0.111833,0.277089 0.20473,0.5101959 0.269531,0.6777344 0.0324,0.083769 0.05722,0.1517363 0.07422,0.1992187 0.0067,0.018692 0.0117,0.030981 0.01563,0.042969 -0.015,0.00521 -0.04131,0.012895 -0.101562,0.019531 -0.139261,0.015337 -0.401776,0.024567 -0.863282,0.037109 -0.863202,0.023482 -1.154957,0.052372 -1.617187,0.1621094 -0.960919,0.228129 -1.891311,0.644472 -2.609375,1.167969 -0.173452,0.126467 -0.282327,0.197766 -0.34375,0.224609 -0.0283,0.01237 -0.0427,0.01184 -0.04883,0.01172 -5.85e-4,-0.0077 -0.0013,-0.01269 -0.002,-0.02344 -0.0022,-0.03945 -0.0038,-0.09705 -0.0059,-0.171875 -0.0042,-0.149654 -0.0085,-0.36505 -0.01172,-0.6289059 -0.0064,-0.5277113 -0.0098,-1.2515346 -0.0098,-2.0429687 0,-1.4122474 0.0011,-2.1342024 0.01563,-2.5253906 0.0072,-0.1955942 0.01692,-0.3082814 0.03125,-0.3808594 0.01433,-0.072578 0.03174,-0.1036059 0.05859,-0.15625 0.153009,-0.2999235 0.591827,-0.7438283 0.96875,-0.9667969 0.311045,-0.184002 0.816685,-0.3687249 1.259765,-0.484375 0.22154,-0.057825 0.428712,-0.099784 0.585938,-0.1152344 0.07861,-0.00773 0.144343,-0.00868 0.191406,-0.00391 z"
       transform="translate(0.07693064,1.0295303)" />
    <path
       style="opacity:1;fill:#30827e;fill-opacity:1;stroke-width:0.02762136"
       d="M 8.1282395,9.4317454 C 7.2145628,8.8176268 6.2003515,8.4060887 5.191966,8.240289 5.0004343,8.2087973 3.654653,8.1292296 3.0862223,8.1157893 3.0748285,8.11552 3.0655063,8.0965295 3.0655063,8.073588 c 0,-0.1155142 1.8433488,-4.6208654 2.3041026,-5.631485 l 0.099379,-0.2179783 0.166519,0.017405 c 0.698231,0.07298 1.516221,0.3604038 2.0828127,0.7318558 0.2406323,0.1577563 0.6813535,0.6007159 0.7562855,0.7601267 0.1107326,0.2355735 0.1195223,0.4497897 0.1174601,2.8626129 -0.00194,2.2726584 -0.017589,3.0935922 -0.058962,3.0935922 -0.011581,0 -0.1937699,-0.1160873 -0.4048637,-0.2579719 z"
       id="path933"
       inkscape:connector-curvature="0"
       transform="translate(0,2.059)" />
    <path
       style="opacity:1;fill:#30827e;fill-opacity:1;stroke-width:0.02762136"
       d="m 11.563334,9.4894622 c -0.02753,-0.3535946 -0.02026,-5.0867597 0.0082,-5.3574361 0.02906,-0.2761197 0.0781,-0.3771477 0.326338,-0.6722971 0.237823,-0.2827624 0.579497,-0.5460049 0.931757,-0.717872 0.506798,-0.2472661 1.275531,-0.4721181 1.671474,-0.488901 0.140706,-0.00596 0.176395,0.00189 0.208585,0.045881 0.115483,0.1578325 2.440863,5.772247 2.405428,5.8076819 -0.0074,0.0074 -0.334531,0.024782 -0.726967,0.038636 -1.221255,0.043113 -1.579283,0.089141 -2.259103,0.2904323 -0.457681,0.135517 -0.904001,0.3148628 -1.327843,0.5335706 -0.343523,0.177262 -0.510455,0.2797977 -0.983098,0.6038537 -0.115777,0.07938 -0.216479,0.1443269 -0.223782,0.1443269 -0.0073,0 -0.02126,-0.1025443 -0.03102,-0.2278762 z"
       id="path935"
       inkscape:connector-curvature="0"
       transform="translate(0,2.059)" />
    <path
       style="opacity:1;fill:#30827e;fill-opacity:1;stroke-width:0.02762136"
       d="m 10.403168,12.431137 c -0.0097,-0.102544 -0.0177,-2.160644 -0.01781,-4.5735538 l -1.97e-4,-4.3871095 0.155592,-0.3041798 c 0.20087,-0.3926972 0.406015,-0.6657778 0.737442,-0.9816503 0.702908,-0.6699187 1.839111,-1.19690543 3.181117,-1.47544586 0.203361,-0.0422088 1.04251,-0.11621637 1.081511,-0.0953824 0.0062,0.003296 1.827045,4.38582126 2.445396,5.88563476 0.727169,1.7637538 1.408323,3.4708701 1.391585,3.4876075 -0.0077,0.00771 -0.558188,0.011869 -1.223291,0.00925 -1.305799,-0.00514 -1.648718,0.012988 -2.285192,0.1208394 -1.827192,0.309616 -3.537605,1.052251 -4.959354,2.153273 -0.312055,0.24166 -0.456936,0.347163 -0.476738,0.347163 -0.0069,0 -0.02038,-0.0839 -0.03007,-0.186444 z m 1.138808,-1.892066 c 0.389117,-0.336603 0.790752,-0.6442742 1.051964,-0.8058534 0.902292,-0.5581351 1.936221,-0.9093959 2.887367,-0.9809375 0.470404,-0.035382 1.350954,-0.03529 1.671092,1.658e-4 0.595892,0.066011 0.561708,0.066506 0.64995,-0.0094 C 17.937763,8.6265715 17.921086,8.5578981 17.505704,7.5214323 16.593377,5.244996 15.197886,1.902322 15.093054,1.7423285 15.015549,1.6240408 14.93977,1.6163439 14.488328,1.680906 13.237606,1.8597759 12.27568,2.2755346 11.628622,2.9169148 c -0.251924,0.2497129 -0.418325,0.482909 -0.59328,0.8314303 l -0.102598,0.2043806 0.01313,3.2068572 c 0.0083,2.0287305 0.02346,3.2522251 0.04126,3.3303491 0.03264,0.143249 0.138587,0.249398 0.248927,0.249394 0.05268,-2e-6 0.142048,-0.05851 0.305913,-0.200255 z"
       id="path937"
       inkscape:connector-curvature="0"
       transform="translate(0,2.059)" />
    <path
       style="opacity:1;fill:#30827e;fill-opacity:1;stroke-width:0.02762136"
       d="M 9.2351077,12.263846 C 8.7271037,11.885758 8.5581406,11.769458 8.211255,11.559116 7.1396484,10.909323 5.8048145,10.400052 4.5437495,10.159878 3.61208,9.9824377 2.5854282,9.9280172 1.4150705,9.9940334 1.0618295,10.013959 0.76512025,10.022567 0.75571657,10.013163 0.7280148,9.9854617 1.4355684,8.2508555 3.5182814,3.2405855 l 1.0905899,-2.62357332 0.3124558,0.008685 c 0.5461422,0.0151813 1.1727035,0.14651295 1.917567,0.40193562 0.923953,0.3168348 1.5862369,0.7044825 2.1253285,1.2439967 0.2735619,0.2737763 0.4502602,0.5191236 0.6751389,0.9374379 L 9.7859997,3.481841 9.7676605,7.5456212 c -0.018034,3.9962338 -0.033396,5.0443388 -0.073936,5.0443388 -0.011246,0 -0.2176237,-0.146751 -0.4586168,-0.326114 z m -0.1649268,-1.60428 c 0.060688,-0.06335 0.081255,-0.118778 0.099918,-0.269309 0.012925,-0.10425 0.032362,-1.5878761 0.043194,-3.2969477 L 9.2329867,3.9859065 9.0939703,3.7096929 C 8.7970636,3.1197652 8.3816898,2.695362 7.7473266,2.3337758 7.1270481,1.9802178 6.1620319,1.7007057 5.4234495,1.6606764 5.1210558,1.6442875 5.115215,1.6451111 5.0729416,1.7101037 5.0203293,1.790992 4.6531608,2.6464959 4.0191484,4.1654453 2.9060551,6.832164 2.2644869,8.4317263 2.2644869,8.5401793 c 0,0.1150897 0.074375,0.2348498 0.1590481,0.2561014 0.041349,0.010378 0.1747408,0.0033 0.2964272,-0.015725 0.3285257,-0.051367 1.3938529,-0.069398 1.9061509,-0.032262 0.2508182,0.018181 0.5793119,0.062266 0.7595874,0.1019372 1.0337254,0.2274815 2.1160156,0.7518189 2.8726213,1.3917001 0.5647054,0.477586 0.5911177,0.497398 0.6631192,0.497398 0.043677,0 0.1025896,-0.03159 0.1487399,-0.07976 z"
       id="path939"
       inkscape:connector-curvature="0"
       transform="translate(0,2.059)" />
  </g>
</svg>
