<svg xmlns="http://www.w3.org/2000/svg" width="20" height="20"  fill="#80CBC4" xmlns:v="https://vecta.io/nano"><path d="M7.335 15.486c-2.105-.005-3.81-1.71-3.815-3.815V9.445a1.06 1.06 0 1 1 2.12 0v2.218a1.702 1.702 0 1 0 3.404 0V10.41a1.06 1.06 0 1 1 2.12 0v1.253c-.001 1.014-.404 1.987-1.122 2.704s-1.691 1.119-2.706 1.118zm-.283-8.182a1.06 1.06 0 0 1-.424-2.032l6.099-2.632a1.062 1.062 0 0 1 .848 1.947L7.476 7.218a1.05 1.05 0 0 1-.424.086z"/><path d="M12.864 15.486c-2.105-.005-3.81-1.71-3.815-3.815v-1.26a1.06 1.06 0 0 1 1.06-1.06 1.06 1.06 0 0 1 1.06 1.06v1.253a1.7 1.7 0 1 0 3.404 0V9.445a1.06 1.06 0 0 1 1.06-1.06 1.06 1.06 0 0 1 1.06 1.06v2.218c-.001 1.014-.404 1.987-1.122 2.704s-1.691 1.119-2.706 1.118z"/><path d="M10.102.085c-5.52 0-10 4.48-10 10s4.48 10 10 10 10-4.48 10-10-4.48-10-10-10zm0 18a8 8 0 0 1-8-8 7.9 7.9 0 0 1 1.69-4.9l11.21 11.21a7.9 7.9 0 0 1-4.9 1.69zm6.31-3.1L5.202 3.775a7.9 7.9 0 0 1 4.9-1.69 8 8 0 0 1 8 8 7.9 7.9 0 0 1-1.69 4.9z" fill="red" fill-opacity="0"/></svg>